<svg id="Capa_1" enable-background="new 0 0 512 512" height="512" viewBox="0 0 512 512" width="512" xmlns="http://www.w3.org/2000/svg"><g><g><path d="m256 512c-68.38 0-132.668-26.629-181.02-74.98-48.351-48.352-74.98-112.64-74.98-181.02s26.629-132.667 74.98-181.019c48.352-48.352 112.64-74.981 181.02-74.981s132.668 26.629 181.02 74.981c48.351 48.352 74.98 112.639 74.98 181.019s-26.629 132.668-74.98 181.02c-48.352 48.351-112.64 74.98-181.02 74.98zm0-497c-64.374 0-124.894 25.068-170.413 70.587s-70.587 106.04-70.587 170.413 25.068 124.894 70.587 170.413 106.039 70.587 170.413 70.587 124.894-25.068 170.413-70.587 70.587-106.039 70.587-170.413-25.068-124.894-70.587-170.413-106.039-70.587-170.413-70.587z"/></g><g><path d="m410.247 396.059c-1.732 0-3.471-.596-4.887-1.814-3.141-2.701-3.496-7.437-.795-10.577 30.512-35.473 47.315-80.813 47.315-127.668 0-108.009-87.872-195.88-195.881-195.88-99.723 0-183.392 74.605-194.621 173.537-.468 4.117-4.199 7.075-8.298 6.606-4.116-.467-7.073-4.182-6.606-8.298 5.803-51.123 30.169-98.306 68.61-132.855 38.74-34.816 88.785-53.99 140.916-53.99 116.28 0 210.881 94.601 210.881 210.88 0 50.443-18.092 99.256-50.944 137.449-1.483 1.725-3.581 2.61-5.69 2.61z"/></g><g><path d="m256 466.88c-54.613 0-106.406-20.796-145.836-58.557-39.306-37.642-62.326-88.243-64.819-142.482-.19-4.138 3.01-7.646 7.147-7.836 4.147-.189 7.647 3.01 7.837 7.148 2.315 50.374 23.698 97.372 60.209 132.337 36.625 35.074 84.733 54.39 135.462 54.39 46.148 0 90.964-16.356 126.189-46.057 3.167-2.67 7.898-2.268 10.569.899 2.67 3.167 2.267 7.898-.899 10.568-37.927 31.98-86.176 49.59-135.859 49.59z"/></g><g><path d="m127.953 285.457c-16.242 0-29.457-13.214-29.457-29.457s13.215-29.457 29.457-29.457 29.457 13.214 29.457 29.457-13.215 29.457-29.457 29.457zm0-43.914c-7.972 0-14.457 6.485-14.457 14.457s6.485 14.457 14.457 14.457 14.457-6.485 14.457-14.457-6.485-14.457-14.457-14.457z"/></g><g><path d="m384.047 285.457c-16.242 0-29.457-13.214-29.457-29.457s13.215-29.457 29.457-29.457 29.457 13.214 29.457 29.457-13.215 29.457-29.457 29.457zm0-43.914c-7.972 0-14.457 6.485-14.457 14.457s6.485 14.457 14.457 14.457 14.457-6.485 14.457-14.457-6.485-14.457-14.457-14.457z"/></g><g><path d="m258.5 143.209c-16.242 0-29.457-13.214-29.457-29.457s13.215-29.458 29.457-29.458 29.457 13.214 29.457 29.458c0 16.242-13.215 29.457-29.457 29.457zm0-43.915c-7.972 0-14.457 6.486-14.457 14.458s6.485 14.457 14.457 14.457 14.457-6.485 14.457-14.457-6.485-14.458-14.457-14.458z"/></g><g><path d="m253.5 427.706c-16.242 0-29.457-13.214-29.457-29.458 0-16.243 13.215-29.457 29.457-29.457s29.457 13.214 29.457 29.457c0 16.244-13.215 29.458-29.457 29.458zm0-43.914c-7.972 0-14.457 6.485-14.457 14.457s6.485 14.458 14.457 14.458 14.457-6.486 14.457-14.458-6.485-14.457-14.457-14.457z"/></g><g><path d="m256 306.903c-4.482 0-8.963-1.706-12.375-5.118l-33.411-33.411c-6.823-6.823-6.823-17.926 0-24.749l33.411-33.411c6.825-6.824 17.927-6.823 24.75 0l33.411 33.411c6.821 6.824 6.821 17.925 0 24.748l-33.411 33.411c-3.412 3.412-7.895 5.118-12.375 5.119zm0-86.813c-.641 0-1.28.244-1.768.731l-33.411 33.411c-.976.975-.976 2.561 0 3.536l33.411 33.411c.975.975 2.561.975 3.535 0l33.411-33.411c.975-.975.975-2.562 0-3.537l-33.411-33.41c-.487-.487-1.126-.731-1.767-.731z"/></g><g><path d="m168.362 215.249c-4.48 0-8.962-1.706-12.374-5.117l-33.411-33.411c-6.823-6.823-6.823-17.925 0-24.748l33.411-33.411c6.823-6.822 17.925-6.823 24.748 0l33.412 33.412c6.823 6.823 6.823 17.925 0 24.748l-33.411 33.411c-3.412 3.41-7.893 5.116-12.375 5.116zm.001-86.812c-.641 0-1.281.244-1.769.731l-33.41 33.411c-.976.975-.976 2.561 0 3.536l33.411 33.411c.975.975 2.56.974 3.534 0l33.411-33.411c.976-.975.976-2.561 0-3.536l-33.411-33.411c-.485-.488-1.126-.731-1.766-.731z"/></g><g><path d="m343.638 215.249c-4.481 0-8.963-1.706-12.375-5.117l-33.411-33.411c-6.823-6.823-6.823-17.925 0-24.748l5.039-5.038c2.928-2.929 7.677-2.927 10.607.001 2.929 2.929 2.929 7.678-.001 10.607l-5.038 5.038c-.975.974-.975 2.561.001 3.535l33.411 33.411c.973.974 2.558.975 3.534 0l33.411-33.411c.976-.975.976-2.561 0-3.536l-33.411-33.411c-.975-.974-2.56-.976-3.534 0l-5.262 5.261c-2.928 2.929-7.677 2.927-10.606-.001-2.929-2.929-2.929-7.678.001-10.607l5.261-5.26c6.823-6.823 17.925-6.823 24.748 0l33.411 33.411c6.823 6.823 6.823 17.925 0 24.748l-33.411 33.411c-3.413 3.411-7.895 5.117-12.375 5.117z"/></g><g><path d="m168.362 398.557c-4.48 0-8.962-1.706-12.374-5.117l-33.411-33.411c-6.823-6.823-6.823-17.925 0-24.749l33.411-33.411c6.825-6.824 17.926-6.823 24.749 0l33.411 33.411c6.823 6.823 6.823 17.925 0 24.749l-33.411 33.411c-3.412 3.411-7.893 5.117-12.375 5.117zm0-86.813c-.64 0-1.279.244-1.767.731l-33.411 33.411c-.976.975-.976 2.561 0 3.536l33.411 33.411c.975.975 2.56.974 3.534 0l33.411-33.411c.976-.975.976-2.561 0-3.536l-33.411-33.411c-.486-.487-1.126-.731-1.767-.731z"/></g><g><path d="m343.637 398.556c-4.48 0-8.962-1.705-12.373-5.116l-33.412-33.412c-6.823-6.823-6.823-17.925 0-24.749l33.411-33.411c6.824-6.823 17.925-6.824 24.749 0l33.411 33.411c6.823 6.823 6.823 17.925 0 24.749l-33.411 33.411c-3.412 3.412-7.894 5.117-12.375 5.117zm.001-86.812c-.641 0-1.28.244-1.768.731l-33.411 33.411c-.976.975-.976 2.561 0 3.536l33.411 33.411c.973.974 2.561.973 3.535 0l33.41-33.411c.976-.975.976-2.561 0-3.536l-33.411-33.411c-.487-.487-1.127-.731-1.766-.731z"/></g></g></svg>